<?xml version="1.0" standalone="no"?>
<!DOCTYPE svg PUBLIC "-//W3C//DTD SVG 20010904//EN"
 "http://www.w3.org/TR/2001/REC-SVG-20010904/DTD/svg10.dtd">
<svg version="1.0" xmlns="http://www.w3.org/2000/svg"
 width="577.000000pt" height="433.000000pt" viewBox="0 0 577.000000 433.000000"
 preserveAspectRatio="xMidYMid meet">

<g transform="translate(0.000000,433.000000) scale(0.100000,-0.100000)"
fill="#000000" stroke="none">
<path d="M3935 3498 l-18 -57 -33 29 c-19 16 -51 33 -71 37 -49 10 -1756 10
-1805 0 -21 -4 -51 -19 -67 -33 -32 -27 -33 -26 -50 29 -14 41 -25 46 -37 20
-20 -45 -32 -2344 -12 -2438 5 -27 12 -123 15 -212 5 -157 5 -161 27 -167 31
-8 2053 -9 2066 -1 6 4 10 61 10 140 0 83 5 155 14 188 24 93 28 428 17 1447
-9 765 -14 996 -24 1030 l-14 45 -18 -57z m-288 -303 l23 -5 0 -489 c0 -400
-2 -491 -14 -500 -9 -8 -216 -10 -757 -9 l-744 3 0 500 0 500 35 5 c49 7 1428
3 1457 -5z m-1502 -1833 c0 -34 -2 -36 -33 -38 -27 -1 -35 3 -43 24 -13 33 -7
47 28 64 35 17 49 3 48 -50z"/>
<path d="M2340 3086 c0 -20 -6 -25 -32 -29 -32 -4 -32 -4 5 -5 35 -2 37 0 37
28 0 17 -2 30 -5 30 -3 0 -5 -11 -5 -24z"/>
<path d="M2300 3085 c0 -8 7 -15 15 -15 8 0 15 7 15 15 0 8 -7 15 -15 15 -8 0
-15 -7 -15 -15z"/>
<path d="M2619 2882 c-31 -31 -39 -48 -41 -78 -1 -22 -2 -49 -3 -61 0 -12 -20
-44 -43 -69 -29 -32 -39 -51 -32 -58 6 -6 18 -2 35 14 l26 25 -3 -65 c-2 -51
0 -65 11 -65 9 0 19 20 27 54 12 55 62 120 82 107 6 -3 8 -32 5 -70 -5 -60 -4
-65 21 -81 19 -12 36 -15 63 -11 37 7 48 7 125 4 25 -2 48 5 69 21 l31 23 24
-23 c32 -30 81 -30 123 0 l32 23 23 -21 c28 -26 75 -27 107 -2 24 19 25 19 48
0 62 -50 131 -3 131 90 0 31 -6 44 -26 60 -15 12 -36 21 -48 21 -39 -1 -92
-62 -102 -118 -5 -27 -28 -43 -57 -40 -43 4 -56 31 -34 65 29 44 66 130 76
175 11 48 1 82 -29 98 -30 16 -54 5 -85 -41 -23 -32 -29 -54 -33 -113 -3 -44
0 -88 7 -108 11 -30 10 -35 -15 -56 -19 -17 -36 -22 -62 -20 -54 5 -60 25 -23
83 31 49 71 159 71 196 0 26 -35 59 -63 59 -32 0 -77 -50 -88 -96 -11 -51 -11
-131 0 -171 7 -25 6 -35 -7 -47 -25 -22 -65 -35 -94 -29 l-25 5 23 23 c12 12
27 40 33 61 9 31 8 41 -6 56 -50 56 -118 -20 -95 -105 10 -34 9 -36 -19 -42
-16 -4 -37 -4 -47 -1 -17 6 -18 12 -10 68 9 68 4 81 -42 96 -22 8 -30 7 -34
-4 -3 -9 -10 -12 -16 -9 -5 3 -10 1 -10 -6 0 -7 -3 -10 -6 -7 -3 3 15 34 40
68 65 88 71 126 26 150 -18 10 -26 6 -61 -28z m46 -34 c-4 -18 -13 -38 -21
-44 -7 -6 -11 -13 -9 -16 3 -3 -2 -11 -12 -19 -14 -12 -16 -12 -9 0 5 7 10 29
11 47 2 34 20 64 37 64 6 0 7 -14 3 -32z m586 15 c3 -51 -37 -194 -56 -196
-15 -3 -18 81 -5 133 11 44 34 80 52 80 4 0 8 -8 9 -17z m-174 -23 c4 -34 -49
-186 -62 -180 -17 9 -11 141 9 178 20 39 50 40 53 2z m-220 -191 c-6 -55 -25
-73 -22 -21 2 38 10 62 22 62 2 0 3 -18 0 -41z m572 27 c18 -21 10 -97 -11
-110 -28 -17 -52 5 -56 48 -5 58 38 97 67 62z"/>
<path d="M3500 2544 c0 -9 7 -14 17 -12 25 5 28 28 4 28 -12 0 -21 -6 -21 -16z"/>
<path d="M2510 2285 c0 -20 5 -25 25 -25 20 0 25 5 25 25 0 20 -5 25 -25 25
-20 0 -25 -5 -25 -25z"/>
<path d="M2268 2253 c12 -2 30 -2 40 0 9 3 -1 5 -23 4 -22 0 -30 -2 -17 -4z"/>
</g>
</svg>
